# xmcd
# Track frame offsets:
# 150
# 18032
# 28715
# 44457
# 56880
# 75895
# 85947
# 102667
# 116190
# 132227
# 148360
# 161395
# 175415
# 188072
# 200260
# 211880
# 223915
# 241957
#
# Disc length: 3399 seconds
# Revision: 1
# Processed by: cddbd v1.4PL0 Copyright (c) Steve Scherf et al.
# Submitted via: VisiTrax 2.9.7.197 - For more info visit www.synapsa.com
#
DISCID=030d4512
DTITLE=Wilma Lee Cooper - Classic Country Favorites
DYEAR=1996
DGENRE=
TTITLE0=Daisy A Day
TTITLE1=Tomorrow I'll Be Gone
TTITLE2=Pretty Polly
TTITLE3=Shackles And Chains
TTITLE4=Tying The Leaves
TTITLE5=Peggy Lou
TTITLE6=I Closed My Heart's Door
TTITLE7=Ain't Gonna Work Tomorrow
TTITLE8=I Couldn't Believe It Was True
TTITLE9=No One Now
TTITLE10=Picking Up The pieces
TTITLE11=White Rose
TTITLE12=Honey In The Rock
TTITLE13=Come Walk With Me
TTITLE14=Rachel's Guitar
TTITLE15=Hallelujah, Hallelujah Praise The King
TTITLE16=Anywhere Just Inside Your Arms
TTITLE17=Big John's Wife
EXTD=Rebel Records REB.CD 1122 - Tracks 1-10 Recorded at: KA Recording - Ro
EXTD=anoke, VA, May 14. 1979 - Tracks 11 - 18 Recorded at: Cumberland Soun
EXTD=d Studio, Hendersonville, TN, April 7. 1981
EXTT0=
EXTT1=
EXTT2=
EXTT3=
EXTT4=
EXTT5=
EXTT6=
EXTT7=
EXTT8=
EXTT9=
EXTT10=
EXTT11=
EXTT12=
EXTT13=
EXTT14=
EXTT15=
EXTT16=
EXTT17=
PLAYORDER=
